HIERARCHY
ROOT hip
{
	OFFSET 0.000000 0.000000 0.000000 
	CHANNELS 6 Xposition Yposition Zposition Xrotation Zrotation Yrotation
	JOINT abdomen
	{
		OFFSET 0.000000 3.402643 0.000000 
		CHANNELS 3 Xrotation Zrotation Yrotation
		JOINT chest
		{
			OFFSET 0.000000 8.438565 -0.680529 
			CHANNELS 3 Xrotation Zrotation Yrotation
			JOINT neck
			{
				OFFSET 0.000000 10.207942 -0.272212 
				CHANNELS 3 Xrotation Zrotation Yrotation
				JOINT head
				{
					OFFSET 0.000000 3.130431 0.000000 
					CHANNELS 3 Xrotation Zrotation Yrotation
					End Site
					{
						OFFSET 0.000000 3.130435 0.000000 
					}
				}
			}
			JOINT lCollar
			{
				OFFSET 3.470700 6.669187 -0.816635 
				CHANNELS 3 Yrotation Zrotation Xrotation
				JOINT lShldr
				{
					OFFSET 3.198488 0.000000 0.000000 
					CHANNELS 3 Zrotation Yrotation Xrotation
					JOINT lForeArm
					{
						OFFSET 10.139888 0.000000 0.000000 
						CHANNELS 3 Yrotation Zrotation Xrotation
						JOINT lHand
						{
							OFFSET 8.370511 0.000000 0.000000 
							CHANNELS 3 Zrotation Yrotation Xrotation
							End Site
							{
								OFFSET 4.083176 0.000000 0.000000 
							}
						}
					}
				}
			}
			JOINT rCollar
			{
				OFFSET -3.470700 6.669187 -0.816635 
				CHANNELS 3 Yrotation Zrotation Xrotation
				JOINT rShldr
				{
					OFFSET -3.198488 0.000000 0.000000 
					CHANNELS 3 Zrotation Yrotation Xrotation
					JOINT rForeArm
					{
						OFFSET -10.139888 0.000000 0.000000 
						CHANNELS 3 Yrotation Zrotation Xrotation
						JOINT rHand
						{
							OFFSET -8.370511 0.000000 0.000000 
							CHANNELS 3 Zrotation Yrotation Xrotation
							End Site
							{
								OFFSET -4.083176 0.000000 0.000000 
							}
						}
					}
				}
			}
		}
	}
	JOINT lThigh
	{
		OFFSET 5.308129 -1.633274 1.361059 
		CHANNELS 3 Xrotation Zrotation Yrotation
		JOINT lShin
		{
			OFFSET -2.041588 -20.007561 0.000000 
			CHANNELS 3 Xrotation Zrotation Yrotation
			JOINT lFoot
			{
				OFFSET 0.000000 -19.190928 -1.224953 
				CHANNELS 3 Xrotation Yrotation Zrotation
				End Site
				{
					OFFSET 0.000000 -2.449906 4.627600 
				}
			}
		}
	}
	JOINT rThigh
	{
		OFFSET -5.308129 -1.633274 1.361059 
		CHANNELS 3 Xrotation Zrotation Yrotation
		JOINT rShin
		{
			OFFSET 2.041588 -20.007561 0.000000 
			CHANNELS 3 Xrotation Zrotation Yrotation
			JOINT rFoot
			{
				OFFSET 0.000000 -19.190928 -1.224953 
				CHANNELS 3 Xrotation Yrotation Zrotation
				End Site
				{
					OFFSET 0.000000 -2.449906 4.627600 
				}
			}
		}
	}
}
MOTION
Frames: 14
Frame Time: 0.033333
-42.606743 32.054623 -42.606743 0.019578 -3.945312 -94.455139 34.924530 6.937440 -10.177851 -10.809884 -0.664007 24.612181 7.588235 -2.427058 -5.363420 10.524219 0.508720 -0.030344 -9.619234 -5.750345 -14.255417 -58.407066 -5.363791 59.648972 -106.338211 -3.172306 0.513199 -19.702442 -34.903728 -1.837030 -0.501101 2.399442 -13.991830 45.917316 14.691307 30.114887 70.376572 3.042400 1.485613 48.242844 52.407265 54.609951 -18.777388 18.823841 21.322018 104.268524 3.971850 -4.255522 3.620688 -6.985385 7.704044 34.611347 -0.855294 -42.597038 56.514645 -0.644186 4.362018 39.218555 15.485388 -11.005288 
-44.339069 28.495651 -44.339069 0.068407 -2.128905 -97.913055 35.133801 8.626139 -10.676003 -9.665814 -1.131463 27.164591 11.811931 -0.088456 -5.529413 10.524219 0.508720 -0.030344 -9.627760 -4.240093 -9.704182 -58.219120 -10.074138 58.909657 -106.812469 -3.170368 0.497171 -19.852303 -35.085796 -1.496808 -1.320350 4.610754 -9.729043 41.886086 18.558464 26.378433 64.664734 2.966813 1.632004 41.599098 50.827999 52.966774 -13.552856 18.664759 21.874928 107.072647 4.128325 -4.167179 10.566918 -6.307207 9.326941 37.147854 -4.239344 -41.515156 58.249855 -0.751875 4.394885 46.127785 18.028141 -13.032588 
-46.060307 25.275320 -46.060307 0.039065 -0.595703 -100.215347 35.313560 10.242950 -11.146746 -8.549843 -1.614131 29.577927 15.732038 2.238352 -5.524148 10.524219 0.508720 -0.030344 -9.543200 -2.700501 -5.458929 -58.633186 -14.880069 58.131439 -107.183434 -3.169684 0.492688 -20.236176 -35.555500 -0.622703 -2.266463 6.749454 -5.721211 38.185959 22.090380 22.616587 59.536274 2.885294 1.751739 34.778751 49.017899 51.591900 -8.710867 18.541159 22.350708 109.818436 4.294187 -4.074272 16.488129 -5.412061 10.844370 38.774445 -7.111897 -40.612083 59.545746 -0.839803 4.427763 52.546276 19.692280 -15.335180 
-47.792633 22.543509 -47.792637 -0.009766 -0.009766 -101.005852 35.477814 11.750086 -11.599277 -7.520594 -2.073870 31.784805 19.179054 4.457128 -5.377183 10.524219 0.508720 -0.030344 -9.303002 -1.157930 -1.744275 -59.978733 -19.654034 57.555553 -107.395264 -3.170610 0.487116 -20.918562 -36.350094 0.872549 -3.273885 8.742341 -2.150655 35.133236 25.351355 19.113640 54.386993 2.798529 1.859289 27.596575 46.897675 50.505424 -4.708055 18.447947 22.664324 112.672470 4.470467 -3.970202 20.409830 -4.529532 12.050173 39.323944 -9.102723 -39.859951 60.188541 -0.889473 4.445157 57.729607 20.396526 -17.071028 
-49.286179 21.455334 -49.286179 -0.029297 0.273437 -101.347794 35.631493 13.110991 -12.010116 -6.588062 -2.492239 33.724838 21.960745 6.532852 -5.130173 10.524219 0.508720 -0.030344 -8.941871 0.429745 1.227552 -62.094955 -23.954178 57.406929 -107.497025 -3.168153 0.485331 -21.868217 -37.359337 2.894398 -4.264852 10.586959 0.775058 32.748959 28.306952 16.327511 49.298737 2.692825 1.970353 20.279119 44.558163 49.804104 -2.198690 18.696770 22.669275 116.526550 4.695248 -3.780497 18.702946 -4.602698 12.686980 38.736408 -10.177189 -39.158909 60.178432 -0.889352 4.454486 61.996315 20.211693 -17.887945 
-50.429924 21.777414 -50.429924 -0.097677 1.181639 -102.296936 35.770561 14.267197 -12.414631 -5.802093 -2.814045 35.332367 23.874718 8.398019 -4.883161 10.524219 0.508720 -0.030344 -8.560814 1.996475 3.259375 -64.547272 -27.245468 57.702633 -107.576363 -3.166116 0.485958 -22.976147 -38.439568 5.153068 -5.174527 12.239521 2.839853 31.134010 30.864389 14.653519 44.348305 2.587331 2.063728 13.029204 42.097359 49.532372 -0.937949 19.326347 22.434332 119.744675 4.885148 -3.651947 13.891303 -5.715409 12.914989 37.254284 -10.664895 -38.472515 59.720448 -0.860136 4.443028 65.988373 19.394981 -17.971842 
-51.495934 22.060541 -51.495926 -0.244441 2.841771 -103.625381 35.909424 15.199930 -12.786346 -5.183136 -3.022472 36.550751 24.746780 10.002949 -4.713076 10.524219 0.508720 -0.030344 -8.126157 3.477858 4.181831 -67.303513 -29.242605 58.435097 -107.643608 -3.165936 0.487725 -24.246073 -39.560238 7.654591 -5.911031 13.682019 3.855774 30.420860 32.876476 14.518121 39.608719 2.485754 2.132981 5.980318 39.603710 49.680679 -0.070516 20.053282 22.124420 118.776443 4.821460 -3.688120 13.936436 -6.917014 13.146431 35.065510 -10.675028 -37.739075 58.873177 -0.801081 4.412591 69.646858 18.274019 -17.309738 
-52.417675 21.899506 -52.417667 -0.529695 5.400162 -105.039864 35.937473 15.157179 -12.928302 -4.973933 -2.586672 36.113766 20.453289 10.922678 -5.279263 10.524219 0.508720 -0.030344 -7.634858 4.745007 -0.064555 -70.224136 -25.341339 59.986526 -107.688660 -3.164142 0.482419 -25.702112 -40.717789 10.424601 -5.738721 14.739982 -0.379194 33.627495 32.069336 20.863661 35.171848 2.379953 2.201155 -0.713522 37.168957 50.195873 0.839075 20.809177 21.842783 113.699219 4.539207 -3.920784 20.599298 -7.696165 13.716229 32.341969 -10.342319 -36.971542 57.771996 -0.722794 4.391192 72.841545 17.027582 -16.004143 
-53.255974 21.744007 -53.255974 -0.958595 8.817144 -106.299057 35.885040 13.867435 -12.721295 -5.190775 -1.374650 33.479084 10.140430 10.822971 -6.653533 10.524219 0.508720 -0.030344 -6.875767 5.498758 -10.326295 -72.101494 -14.459716 61.665134 -107.719818 -3.167729 0.478630 -27.350586 -41.872063 13.445342 -4.326356 15.172009 -10.784994 40.617508 26.767666 33.731590 31.116894 2.273888 2.247553 -6.973225 34.907494 50.996063 1.601102 21.640022 21.520899 107.209877 4.130872 -4.155015 29.633476 -8.335392 14.516560 29.277073 -9.815185 -36.174114 56.485367 -0.644639 4.360605 75.521576 15.788522 -14.228142 
-54.510872 21.433165 -54.510872 -1.513071 12.944857 -107.202202 35.865383 11.988833 -12.387025 -5.605447 0.094397 29.683474 -1.538536 10.003989 -7.811721 10.524219 0.508720 -0.030344 -5.686200 5.558129 -22.095032 -72.240677 -1.800535 62.934586 -107.732269 -3.163214 0.468041 -29.184944 -43.012150 16.716135 -2.302112 14.932112 -22.698854 47.048267 18.797077 46.778053 27.512806 2.186605 2.293295 -12.655487 32.880493 51.986031 2.262091 22.502296 21.169897 99.660599 3.653860 -4.378188 39.883240 -8.917566 15.470201 26.051247 -9.249072 -35.365559 55.092281 -0.546443 4.314587 77.658455 14.717166 -12.124519 
-56.398552 20.850126 -56.398552 -2.130538 17.556961 -107.761604 36.030430 10.167600 -12.109173 -5.894265 1.350959 25.754459 -10.009195 9.231925 -8.060616 10.524219 0.508720 -0.030344 -4.114024 5.012982 -25.000000 -71.256485 7.366751 63.526669 -107.732269 -3.163214 0.468041 -31.212557 -44.100513 20.210249 -0.412311 14.386800 -25.000000 50.982967 12.370996 56.535633 24.450806 2.101897 2.320453 -17.666752 31.155775 53.034363 2.869966 23.368546 20.840195 91.472893 3.088734 -4.581308 50.236485 -9.543152 16.418800 22.849367 -8.780112 -34.465939 53.669125 -0.448561 4.284399 79.109962 13.928823 -9.819206 
-58.636169 20.039537 -58.636169 -2.813339 22.573154 -108.004181 36.443874 8.358166 -11.783295 -5.904394 2.437532 21.712456 -15.276997 8.876166 -7.710533 10.524219 0.508720 -0.030344 -2.344189 4.216514 -25.000000 -69.992134 12.854758 63.239506 -107.730507 -3.166541 0.467904 -33.448425 -45.141151 23.944105 1.191251 13.927109 -25.000000 52.969486 8.719692 64.303299 22.009415 2.036940 2.335015 -21.864697 29.742243 54.057381 3.434944 24.164934 20.545969 83.049179 2.485735 -4.652711 59.524422 -10.442777 17.248039 19.818626 -8.545298 -33.425514 52.343822 -0.350841 4.246214 79.725021 13.521744 -7.470075 
-60.912582 19.006800 -60.912579 -3.482028 27.924917 -107.977348 37.015594 6.168307 -11.298838 -5.838794 3.636470 17.059895 -20.290939 8.696456 -7.201968 10.524219 0.508720 -0.030344 -0.565448 3.236487 -25.000000 -68.156952 17.824522 62.841061 -107.709435 -3.166536 0.479891 -35.869602 -46.081383 27.882032 2.962776 13.325375 -25.000000 51.635616 6.297303 75.051399 21.602453 2.031877 2.344265 -24.833324 29.037954 54.700222 4.001774 24.860050 20.287949 74.764854 1.891771 -4.663058 66.648140 -11.842165 17.667244 16.563543 -8.485660 -32.080242 50.979099 -0.304757 4.180735 78.452362 13.497530 -4.475874 
-63.261200 16.974712 -63.261200 -4.149845 33.563484 -107.741196 37.641098 3.814960 -10.744887 -5.794751 4.882620 12.087686 -24.965679 8.640159 -6.549253 10.524219 0.508720 -0.030344 1.203106 2.025409 -25.000000 -65.683121 22.231291 62.617420 -107.686897 -3.167461 0.482276 -38.460609 -46.916176 32.017624 4.840014 12.497126 -25.000000 47.104565 6.838436 89.426598 23.773710 2.083166 2.329447 -26.267174 29.097174 54.797039 4.331719 25.247534 19.990791 64.378166 1.162215 -4.544502 64.013863 -16.406462 14.851795 12.808893 -8.436872 -30.368773 49.419590 -0.180008 4.140778 74.842545 13.181973 -0.500516 
